# xmcd
#
# Track frame offsets: 
#        150
#        6793
#        21820
#        37103
#        58038
#        68243
#        91586
#        111953
#        130796
#        145211
#        169937
#        183061
#        200366
#
# Disc length: 2880 seconds
#
# Revision: 0
# Processed by: cddbd v1.5.2PL0 Copyright (c) Steve Scherf et al.
# Submitted via: ExactAudioCopy v1.3
#
DISCID=ab0b3e0d
DTITLE=The Mike Eldred Trio - 61 And 49
DYEAR=2011
DGENRE=Blues
TTITLE0=Don't Go Down There
TTITLE1=Jake's Boogie
TTITLE2=Louise
TTITLE3=Mr. Newman
TTITLE4=She's A Rocket
TTITLE5=Ruby's Blues
TTITLE6=For A Girl
TTITLE7=This Old Train
TTITLE8=Jimmy, Jimmy
TTITLE9=Ms. Gayle's Chicken House
TTITLE10=I Ain't Comin' Back
TTITLE11=Lookie Here
TTITLE12=61 And 49
EXTD=
EXTT0=
EXTT1=
EXTT2=
EXTT3=
EXTT4=
EXTT5=
EXTT6=
EXTT7=
EXTT8=
EXTT9=
EXTT10=
EXTT11=
EXTT12=
PLAYORDER=
